<svg width="2469" height="711" viewBox="0 0 2469 711" fill="none" xmlns="http://www.w3.org/2000/svg">
<path d="M0 0H2469V711H0V0Z" fill="#C63131"/>
<path d="M782.391 498V214H843.191V446.8H973.991V498H782.391ZM1001.85 498V283.6H1061.85V498H1001.85ZM1000.65 257.2V209.2H1062.65V257.2H1000.65ZM1117.08 498V283.6H1171.08L1172.28 319.2C1178.15 304.533 1186.68 294.133 1197.88 288C1209.08 281.867 1221.75 278.8 1235.88 278.8C1259.08 278.8 1276.95 286.133 1289.48 300.8C1302.28 315.467 1308.68 335.2 1308.68 360V498H1248.68V380C1248.68 362.933 1246.28 349.733 1241.48 340.4C1236.95 331.067 1228.41 326.4 1215.88 326.4C1203.35 326.4 1193.75 331.067 1187.08 340.4C1180.41 349.733 1177.08 362.933 1177.08 380V498H1117.08ZM1453.73 502.8C1431.87 502.8 1412.67 498.133 1396.13 488.8C1379.87 479.467 1367.2 466.533 1358.13 450C1349.33 433.2 1344.93 413.467 1344.93 390.8C1344.93 368.4 1349.33 348.8 1358.13 332C1367.2 315.2 1379.87 302.133 1396.13 292.8C1412.67 283.467 1431.87 278.8 1453.73 278.8C1472.67 278.8 1489.6 282.133 1504.53 288.8C1519.73 295.467 1532 305.067 1541.33 317.6C1550.67 330.133 1556.4 345.2 1558.53 362.8L1496.53 365.6C1494.67 352.267 1489.87 342.267 1482.13 335.6C1474.67 328.667 1465.2 325.2 1453.73 325.2C1438.8 325.2 1427.2 330.933 1418.93 342.4C1410.67 353.867 1406.53 370 1406.53 390.8C1406.53 411.6 1410.67 427.867 1418.93 439.6C1427.2 451.067 1438.8 456.8 1453.73 456.8C1465.2 456.8 1474.8 453.333 1482.53 446.4C1490.27 439.2 1494.93 428.4 1496.53 414L1558.53 416.4C1556.67 434 1551.07 449.333 1541.73 462.4C1532.67 475.2 1520.53 485.2 1505.33 492.4C1490.4 499.333 1473.2 502.8 1453.73 502.8ZM1688.09 502.8C1666.22 502.8 1647.16 498.133 1630.89 488.8C1614.89 479.467 1602.36 466.533 1593.29 450C1584.49 433.2 1580.09 413.467 1580.09 390.8C1580.09 368.4 1584.49 348.8 1593.29 332C1602.09 315.2 1614.49 302.133 1630.49 292.8C1646.76 283.467 1665.82 278.8 1687.69 278.8C1709.02 278.8 1727.56 283.467 1743.29 292.8C1759.02 302.133 1771.16 315.467 1779.69 332.8C1788.49 350.133 1792.89 370.8 1792.89 394.8V406.8H1642.09C1642.89 423.867 1647.42 436.533 1655.69 444.8C1664.22 453.067 1675.42 457.2 1689.29 457.2C1710.09 457.2 1723.42 448.533 1729.29 431.2L1789.69 434.8C1783.82 456.133 1771.82 472.8 1753.69 484.8C1735.82 496.8 1713.96 502.8 1688.09 502.8ZM1642.09 370H1731.29C1730.49 354.267 1726.09 342.533 1718.09 334.8C1710.36 327.067 1700.22 323.2 1687.69 323.2C1675.16 323.2 1664.76 327.333 1656.49 335.6C1648.49 343.6 1643.69 355.067 1642.09 370ZM1868.55 498V265.2H1783.75V214H2014.95V265.2H1929.75V498H1868.55ZM2144.79 504.4C2107.99 504.4 2079.06 495.333 2057.99 477.2C2037.19 459.067 2025.72 434.8 2023.59 404.4L2084.79 401.6C2087.19 418.4 2093.32 431.333 2103.19 440.4C2113.06 449.467 2127.19 454 2145.59 454C2160.52 454 2172.12 451.333 2180.39 446C2188.92 440.4 2193.19 432.133 2193.19 421.2C2193.19 414.533 2191.59 408.8 2188.39 404C2185.19 398.933 2179.06 394.4 2169.99 390.4C2160.92 386.133 2147.59 382 2129.99 378C2105.72 372.4 2086.12 366.133 2071.19 359.2C2056.52 352.267 2045.86 343.6 2039.19 333.2C2032.52 322.533 2029.19 309.2 2029.19 293.2C2029.19 276.4 2033.32 261.6 2041.59 248.8C2050.12 235.733 2062.39 225.6 2078.39 218.4C2094.39 211.2 2113.46 207.6 2135.59 207.6C2159.06 207.6 2178.92 211.733 2195.19 220C2211.46 228.267 2224.12 239.6 2233.19 254C2242.26 268.4 2247.86 284.933 2249.99 303.6L2189.19 306.8C2187.59 292.133 2182.12 280.4 2172.79 271.6C2163.72 262.533 2151.06 258 2134.79 258C2120.92 258 2109.99 261.067 2101.99 267.2C2094.26 273.333 2090.39 281.333 2090.39 291.2C2090.39 298.133 2092.12 304 2095.59 308.8C2099.06 313.333 2105.06 317.333 2113.59 320.8C2122.12 324.267 2134.12 327.6 2149.59 330.8C2175.99 336.133 2196.79 342.933 2211.99 351.2C2227.19 359.2 2237.99 368.8 2244.39 380C2251.06 391.2 2254.39 404 2254.39 418.4C2254.39 436 2249.86 451.333 2240.79 464.4C2231.99 477.2 2219.32 487.067 2202.79 494C2186.52 500.933 2167.19 504.4 2144.79 504.4Z" fill="white"/>
<path d="M229.019 97.3567C227.395 98.6592 227.201 99.5817 227.395 103.869C227.72 111.901 238.174 127.585 250.121 138.059L254.471 141.857L254.861 146.036C255.38 151.409 258.562 163.674 261.809 173.062C271.353 200.685 286.547 224.998 303.234 239.379L308.104 243.558L302.78 248.279C297.65 252.838 288.56 262.389 273.041 279.43C267.198 285.834 264.276 288.547 260.835 290.718C255.186 294.245 244.927 298.696 238.109 300.541L232.979 301.952L229.863 306.836C219.019 324.039 207.981 351.554 204.215 370.874C202.202 381.293 202.787 402.947 205.254 406.8C205.514 407.18 206.293 406.311 207.267 404.629C209.215 401.102 217.916 393.721 222.72 391.604C224.603 390.736 226.292 390.139 226.421 390.248C226.551 390.302 225.967 392.744 225.123 395.566C221.941 406.637 220.253 421.073 220.253 437.408C220.253 454.231 221.682 466.496 224.928 477.675C226.292 482.397 230.382 490.103 231.681 490.374C232.005 490.483 232.85 488.692 233.499 486.413C236.68 475.125 240.706 467.581 246.16 462.697C249.472 459.767 256.939 455.262 257.523 455.859C257.588 455.968 257.458 458.898 257.134 462.317C256.289 470.729 256.939 492.057 258.237 499.763C262.393 525.052 273.106 546.055 290.183 562.444L295.248 567.274L296.027 561.684C298.429 544.535 308.169 523.099 320.441 507.741L324.466 502.748L324.921 507.306C326.349 522.068 335.634 545.729 347.127 564.072C361.801 587.571 380.956 605.697 400.175 614.271C404.201 616.008 405.435 616.388 405.11 615.628C404.201 613.783 402.772 604.991 401.993 597.122C401.019 587.136 401.539 566.514 402.967 557.288C405.824 539.108 412.122 523.913 420.953 514.199C424.394 510.4 425.563 509.531 425.953 510.508C426.537 512.028 434.913 523.045 439.848 528.906C446.99 537.317 451.535 541.116 456.015 542.419C458.872 543.233 461.275 543.45 469.261 543.395C483.806 543.287 492.766 541.333 508.349 534.984C516.141 531.782 518.933 529.937 518.933 527.874C518.933 527.332 517.894 524.727 516.595 522.068L514.258 517.292L517.31 513.819C523.283 507.089 529.971 496.561 529.971 494.065C529.971 492.762 528.478 493.088 520.491 496.344C513.803 499.112 512.31 499.492 508.219 499.654C497.701 500.143 495.103 498.243 486.987 484.568C480.299 473.117 478.351 468.775 477.378 462.806C476.079 454.882 478.092 447.285 482.117 444.734C487.442 441.424 497.831 438.33 511.791 436.051C539.451 431.438 554.255 432.144 571.397 438.981L578.02 441.641V443.703C578.02 446.851 576.202 456.131 574.708 460.689C572.046 468.83 565.488 477.187 553.021 488.312C539.905 500.034 540.295 501.88 555.359 500.089C563.605 499.166 571.851 497.212 577.046 494.987C584.772 491.785 598.732 481.366 609.446 471C612.628 467.853 615.42 465.302 615.614 465.302C615.874 465.302 617.757 466.062 619.9 467.039C625.419 469.427 628.795 470.186 630.418 469.427C634.249 467.744 652.3 442.129 656.001 433.175C656.715 431.33 658.014 429.701 659.767 428.399C661.195 427.314 663.208 425.306 664.312 423.895C666.715 420.693 669.961 412.607 670.545 408.265L671 404.955L664.572 399.582C656.261 392.636 651.91 388.023 642.041 375.649C637.626 370.005 631.263 362.625 627.951 359.206C615.03 345.856 608.212 335.219 599.382 314.542C597.953 311.177 595.876 307.107 594.772 305.479C588.084 295.548 566.722 275.143 545.684 258.645C527.504 244.318 519.777 239.868 501.077 233.03C489.714 228.851 473.482 223.478 456.795 218.323L442.964 214.09L439.458 209.206C433.939 201.499 428.42 195.53 420.628 189.017C407.382 177.892 395.111 172.682 376.216 170.023C364.658 168.395 337.582 160.038 298.299 145.982C272.652 136.81 266.094 134.097 261.614 130.732C254.731 125.522 246.68 116.08 240.057 105.28C237.005 100.342 232.914 96 231.356 96C230.902 96 229.863 96.597 229.019 97.3567ZM536.464 330.986C545.554 337.715 552.567 343.251 552.047 343.305C548.866 343.739 529.127 345.638 527.828 345.638C526.465 345.638 525.101 343.63 515.167 326.698C508.999 316.333 503.999 307.65 503.999 307.433C503.999 307.216 507.57 309.658 511.985 312.914C516.336 316.17 527.374 324.311 536.464 330.986Z" fill="white"/>
</svg>
